<?xml version="1.0" encoding="utf-8"?>
<!-- Generator: Adobe Illustrator 19.0.0, SVG Export Plug-In . SVG Version: 6.00 Build 0)  -->
<svg version="1.1" id="Layer_1" xmlns="http://www.w3.org/2000/svg" xmlns:xlink="http://www.w3.org/1999/xlink" x="0px" y="0px"
	 viewBox="0 0 256 256" style="enable-background:new 0 0 256 256;" xml:space="preserve">
<style type="text/css">
	.st0{fill:#FFFFFF;}
	.st1{fill:#EDEDED;}
	.st2{fill:#951B81;}
</style>
<path id="XMLID_12_" class="st0" d="M246,256H10c-5.5,0-10-4.5-10-10V10C0,4.5,4.5,0,10,0h236c5.5,0,10,4.5,10,10v236
	C256,251.5,251.5,256,246,256z"/>
<rect id="XMLID_2_" x="18" y="180" class="st1" width="220" height="20"/>
<rect id="XMLID_5_" x="18" y="16.2" class="st2" width="220" height="20"/>
<rect id="XMLID_3_" x="18" y="210" class="st2" width="220" height="30"/>
<g id="XMLID_6_">
	<rect id="XMLID_4_" x="18" y="44.6" class="st1" width="105" height="20"/>
	<rect id="XMLID_1_" x="133" y="44.6" class="st2" width="105" height="20"/>
</g>
<g id="XMLID_7_">
	<rect id="XMLID_9_" x="18" y="140.9" class="st2" width="100" height="30"/>
	<rect id="XMLID_8_" x="138" y="140.9" class="st2" width="100" height="30"/>
</g>
<rect id="XMLID_10_" x="18" y="101.5" class="st1" width="220" height="30"/>
<rect id="XMLID_11_" x="18" y="72.7" class="st2" width="220" height="20"/>
</svg>
